<?xml version="1.0" encoding="utf-8"?>
<!-- Generator: Adobe Illustrator 16.0.0, SVG Export Plug-In . SVG Version: 6.00 Build 0)  -->
<!DOCTYPE svg PUBLIC "-//W3C//DTD SVG 1.1//EN" "http://www.w3.org/Graphics/SVG/1.1/DTD/svg11.dtd">
<svg version="1.1" id="Layer_1" xmlns="http://www.w3.org/2000/svg" xmlns:xlink="http://www.w3.org/1999/xlink" x="0px" y="0px"
	 width="600px" height="600px" viewBox="0 0 600 600" enable-background="new 0 0 600 600" xml:space="preserve">
<path fill="none" stroke="#FFFFFF" stroke-width="8.7567" stroke-linejoin="round" stroke-miterlimit="10" d="M95.299,399.264"/>
<g>
	<path d="M300.01,185.191c-0.001-0.064-0.01-0.126-0.01-0.191v-41.793L195.62,324h24.249L300.01,185.191z"/>
	<polygon points="379.494,324 308.919,201.759 238.343,324 	"/>
	<polygon points="189,340 189,377.466 210.631,340 	"/>
	<polygon points="422.217,324 316,140.024 316,182.022 397.97,324 	"/>
	<path d="M305.848,36.915c-134.781,0-244.042,109.261-244.042,244.042C61.805,415.738,171.067,525,305.848,525
		c134.78,0,244.042-109.262,244.042-244.042C549.89,146.176,440.628,36.915,305.848,36.915z M443.001,410
		c-1.429,2.476-4.069,4-6.928,4h-254.31c-2.858,0-5.499-1.524-6.928-4c-0.392-0.679-0.666-1.401-0.843-2.143
		C173.361,406.713,173,405.399,173,404v-72c0-2.626,1.271-4.949,3.225-6.408l125.766-217.833c1.429-2.475,4.069-4,6.928-4
		s5.499,1.525,6.929,4L443.002,328c0.898,1.557,1.229,3.34,0.998,5.065V404c0,0.251-0.015,0.498-0.037,0.743
		C444.246,406.527,443.934,408.385,443.001,410z"/>
	<polygon points="229.106,340 195.62,398 422.217,398 388.731,340 	"/>
	<polygon points="428,376.016 428,340 407.207,340 	"/>
</g>
</svg>
